{"title":"The Last: Naruto the Movie (EngDub) 720p x264 Download ","magnet":"magnet:?xt=urn:btih:aab9051890340ab2453a8b69e47aef1257ed0de2&dn=The+Last%3A+Naruto+the+Movie+%28EngDub%29+720p+x264+Download+&tr=udp%3A%2F%2Ftracker.leechers-paradise.org%3A6969&tr=udp%3A%2F%2Fzer0day.ch%3A1337&tr=udp%3A%2F%2Fopen.demonii.com%3A1337&tr=udp%3A%2F%2Ftracker.coppersurfer.tk%3A6969&tr=udp%3A%2F%2Fexodus.desync.com%3A6969","uploader":"digimaza","categoryP":"video","categoryS":"movies","size":"413712605","seeders":"0","leechers":"0","description":"The Last: Naruto the Movie (EngDub) 720p x264 Download \r\n..::File Specs::.. \r\nGeneral \r\n\r\nFormat : Matroska \r\nFormat version : Version 4 / Version 2 \r\nFile size : 395 MiB \r\nDuration : 1 h 52 min \r\nOverall bit rate : 492 kb/s \r\n\r\nVideo \r\nID : 1 \r\nFormat : AVC \r\nFormat/Info : Advanced Video Codec \r\nFormat profile : <a class=\"__cf_email__\" href=\"/cdn-cgi/l/email-protection\" data-cfemail=\"b8f0d1dfd0f8f48c\">[email&#xA0;protected]</a><script data-cfhash=\"f9e31\" type=\"text/javascript\">/* <![CDATA[ */!function(t,e,r,n,c,a,p){try{t=document.currentScript||function(){for(t=document.getElementsByTagName('script'),e=t.length;e--;)if(t[e].getAttribute('data-cfhash'))return t[e]}();if(t&&(c=t.previousSibling)){p=t.parentNode;if(a=c.getAttribute('data-cfemail')){for(e='',r='0x'+a.substr(0,2)|0,n=2;a.length-n;n+=2)e+='%'+('0'+('0x'+a.substr(n,2)^r).toString(16)).slice(-2);p.replaceChild(document.createTextNode(decodeURIComponent(e)),c)}p.removeChild(t)}}catch(u){}}()/* ]]> */</script> \r\nFormat settings, CABAC : Yes \r\nFormat settings, ReFrames : 8 frames \r\nCodec ID : V_MPEG4/ISO/AVC \r\nDuration : 1 h 52 min \r\nBit rate : 450 kb/s \r\nWidth : 1 280 pixels \r\nHeight : 720 pixels \r\nDisplay aspect ratio : 16:9 \r\nFrame rate mode : Constant \r\nFrame rate : 23.976 (24000/1001) FPS \r\nColor space : YUV \r\nChroma subsampling : 4:2:0 \r\nBit depth : 8 bits \r\nScan type : Progressive \r\nBits/(Pixel*Frame) : 0.020 \r\nStream size : 361 MiB (92%) \r\nWriting library : x264 core 104 r1683 62997d6 \r\nDefault : Yes \r\nForced : No \r\n\r\nAudio \r\nID : 2 \r\nFormat : AAC \r\nFormat/Info : Advanced Audio Codec \r\nFormat profile : HE-AAC / LC \r\nCodec ID : A_AAC \r\nDuration : 1 h 52 min \r\nBit rate : 40.0 kb/s \r\nChannel(s) : 2 channels \r\nChannel positions : Front: L R \r\nSampling rate : 48.0 kHz / 24.0 kHz \r\nFrame rate : 23.438 FPS (1024 spf) \r\nCompression mode : Lossy \r\nDelay relative to video : -83 ms \r\nStream size : 32.1 MiB (8%) \r\n\r\n..::ScreenShots::.. \r\n <a href=\"\nhttps://s18.postimg.org/7zfc5l5vt/vlcsnap-2017-07-12-02h23m02s381.png\" rel=\"nofollow\" target=\"_NEW\">\nhttps://s18.postimg.org/7zfc5l5vt/vlcsnap-2017-07-12-02h23m02s381.png</a>  <a href=\"\nhttps://s18.postimg.org/sxli3o5qh/vlcsnap-2017-07-12-02h23m11s488.png\" rel=\"nofollow\" target=\"_NEW\">\nhttps://s18.postimg.org/sxli3o5qh/vlcsnap-2017-07-12-02h23m11s488.png</a>  <a href=\"\nhttps://s18.postimg.org/r72h26o7d/vlcsnap-2017-07-12-02h23m20s920.png\" rel=\"nofollow\" target=\"_NEW\">\nhttps://s18.postimg.org/r72h26o7d/vlcsnap-2017-07-12-02h23m20s920.png</a> \r\n\r\n================================================================ \r\nSeed Seed Seed Seed Seed Seed Seed Seed Seed Seed Seed Seed Seed \r\nTo direct download or Watch Online this file, Visit. \r\r\nSeed Seed Seed Seed Seed Seed Seed Seed Seed Seed Seed Seed Seed \r\n================================================================","last_updated":"2017-07-12T12:01:45.268Z","parsed":{"xt":"urn:btih:aab9051890340ab2453a8b69e47aef1257ed0de2","dn":"The Last: Naruto the Movie (EngDub) 720p x264 Download ","tr":["udp://exodus.desync.com:6969","udp://open.demonii.com:1337","udp://tracker.coppersurfer.tk:6969","udp://tracker.leechers-paradise.org:6969","udp://zer0day.ch:1337"],"infoHash":"aab9051890340ab2453a8b69e47aef1257ed0de2","infoHashBuffer":{"type":"Buffer","data":[170,185,5,24,144,52,10,178,69,58,139,105,228,122,239,18,87,237,13,226]},"name":"The Last: Naruto the Movie (EngDub) 720p x264 Download ","announce":["udp://exodus.desync.com:6969","udp://open.demonii.com:1337","udp://tracker.coppersurfer.tk:6969","udp://tracker.leechers-paradise.org:6969","udp://zer0day.ch:1337"],"urlList":[]}}